# xmcd
#
# Track frame offsets:
#	150
#	17439
#	28845
#	49346
#	68313
#	85552
#	101799
#	114150
#	126501
#	142320
#	157179
#	172423
#	194929
#	214503
#	234189
#	248604
#	265663
#	285227
#	304071
#
# Disc length: 4225 seconds
#
# Revision: 0
# Processed by: cddbd v1.5.1PL2 Copyright (c) Steve Scherf et al.
# Submitted via: dBpowerAMP V4.0
#
DISCID=0d107f13
DTITLE=Various Artist - compilation
DYEAR=2006
DGENRE=Dance
TTITLE0=Track01 - vari
TTITLE1=Track02 - vari
TTITLE2=Track03 - vari
TTITLE3=Track04 - vari
TTITLE4=Track05 - vari
TTITLE5=Track06 - vari
TTITLE6=Track07 - vari
TTITLE7=Track08 - vari
TTITLE8=Track09 - vari
TTITLE9=Track10 - vari
TTITLE10=Track11 - vari
TTITLE11=Track12 - vari
TTITLE12=Track13 - vari
TTITLE13=Track14 - vari
TTITLE14=Track15 - vari
TTITLE15=Track16 - vari
TTITLE16=Track17 - vari
TTITLE17=Track18 - vari
TTITLE18=Track19 - vari
EXTD=compilation
EXTT0=
EXTT1=
EXTT2=
EXTT3=
EXTT4=
EXTT5=
EXTT6=
EXTT7=
EXTT8=
EXTT9=
EXTT10=
EXTT11=
EXTT12=
EXTT13=
EXTT14=
EXTT15=
EXTT16=
EXTT17=
EXTT18=
PLAYORDER=
